<svg xmlns="http://www.w3.org/2000/svg" version="1.1" xmlns:xlink="http://www.w3.org/1999/xlink" width="1000" height="1000"><g clip-path="url(#SvgjsClipPath1614)"><rect width="1000" height="1000" fill="#ffffff"></rect><g transform="matrix(10.416666666666666,0,0,10.416666666666666,0,192.70833333333337)"><svg xmlns="http://www.w3.org/2000/svg" version="1.1" xmlns:xlink="http://www.w3.org/1999/xlink" width="96" height="59"><svg width="96" height="59" viewBox="0 0 96 59" fill="none" xmlns="http://www.w3.org/2000/svg">
<path d="M95.1 32.2999V33.7L46.9 57.7999V56.3999L95.1 32.2999ZM95.4 31.7L46.6 56.1V58.3999L95.4 33.9V31.7Z" fill="#111111"></path>
<path d="M0.800024 32.2L46.4 56.4V57.8L0.800024 33.7V32.2ZM0.400024 31.6V34L46.6 58.5V56.2L0.400024 31.6Z" fill="#111111"></path>
<path d="M37.3 49.5H34.1L46.6 56.1L59.3 49.7L59.6 44.5C59 44.8 58.4 45.2 57.8 45.5C52.3 48.3 44.9 49.8 37.3 49.5Z" fill="#111111"></path>
<path d="M35.2 14.2L0.400024 31.7L10.4 37L39.2 22.5C37.3 19.7 35.7 16.7 35.2 14.2Z" fill="#111111"></path>
<path d="M56.2 24.8C52.9 29.1 49.5 32.7001 49.2 32.9001L48.5 33.6001L47.8 32.9001C47.5 32.6001 44.5 29.5 41.4 25.5L14.4 39L28.3 46.4H37.6C43.5 46.6 49.4 45.5 53.7 43.3C57.3 41.5 59.5 39.1001 60 36.6001L60.1 35.1001L60.3 32C60.8 29.5 59.3 26.9 56.2 24.8Z" fill="#111111"></path>
<path d="M66.2 32.2H80.4L80.8 24L63.3 14.7L61.5 15.6C60.9 17.5 59.8 19.6 58.5 21.6L59.2 22C64.3 24.6 66.8 28.3 66.2 32.2Z" fill="#111111"></path>
<path d="M86.6 27L86.3 32.2H94.4L95.4 31.7L86.6 27Z" fill="#111111"></path>
<path d="M80.2 35.2H66C66 35.7 66 36.2999 65.9 36.7999L65.4 46.7L88.3 35.2H86.1H80.2Z" fill="#111111"></path>
<path d="M48.5 0C41.6 0 36 5.7 36 12.6C36 19.5 48.6 32.3 48.6 32.3C48.6 32.3 61.2 19.6 61.2 12.6C61.1 5.7 55.5 0 48.5 0ZM48.5 16.1C45.5 16.1 43 13.7 43 10.6C43 7.5 45.4 5.1 48.5 5.1C51.5 5.1 54 7.5 54 10.6C54 13.7 51.5 16.1 48.5 16.1Z" fill="#111111"></path>
</svg></svg></g></g><defs><clipPath id="SvgjsClipPath1614"><rect width="1000" height="1000" x="0" y="0" rx="500" ry="500"></rect></clipPath></defs></svg>